<?xml version="1.0" encoding="utf-8" standalone="no"?>
<!DOCTYPE svg PUBLIC "-//W3C//DTD SVG 1.1//EN"
  "http://www.w3.org/Graphics/SVG/1.1/DTD/svg11.dtd">
<svg xmlns:xlink="http://www.w3.org/1999/xlink" width="792pt" height="345.6pt" viewBox="0 0 792 345.6" xmlns="http://www.w3.org/2000/svg" version="1.1">
 <metadata>
  <rdf:RDF xmlns:dc="http://purl.org/dc/elements/1.1/" xmlns:cc="http://creativecommons.org/ns#" xmlns:rdf="http://www.w3.org/1999/02/22-rdf-syntax-ns#">
   <cc:Work>
    <dc:type rdf:resource="http://purl.org/dc/dcmitype/StillImage"/>
    <dc:date>2026-10-07T08:04:31.359416</dc:date>
    <dc:format>image/svg+xml</dc:format>
    <dc:creator>
     <cc:Agent>
      <dc:title>Matplotlib v3.10.8, https://matplotlib.org/</dc:title>
     </cc:Agent>
    </dc:creator>
   </cc:Work>
  </rdf:RDF>
 </metadata>
 <defs>
  <style type="text/css">*{stroke-linejoin: round; stroke-linecap: butt}</style>
 </defs>
 <g id="figure_1">
  <g id="patch_1">
   <path d="M 0 345.6 
L 792 345.6 
L 792 0 
L 0 0 
z
" style="fill: #ffffff"/>
  </g>
  <g id="axes_1">
   <g id="patch_2">
    <path d="M 49.9925 269.7775 
L 408.44625 269.7775 
L 408.44625 26.16 
L 49.9925 26.16 
z
" style="fill: #ffffff"/>
   </g>
   <g id="matplotlib.axis_1">
    <g id="xtick_1">
     <g id="line2d_1">
      <path d="M 84.12625 269.7775 
L 84.12625 26.16 
" clip-path="url(#p31f5d31014)" style="fill: none; stroke: #b0b0b0; stroke-opacity: 0.2; stroke-width: 0.8; stroke-linecap: square"/>
     </g>
     <g id="line2d_2">
      <defs>
       <path id="m723183036b" d="M 0 0 
L 0 3.5 
" style="stroke: #000000; stroke-width: 0.8"/>
      </defs>
      <g>
       <use xlink:href="#m723183036b" x="84.12625" y="269.7775" style="stroke: #000000; stroke-width: 0.8"/>
      </g>
     </g>
     <g id="text_1">
      <text style="font-size: 10px; font-family: 'NanumGothic'; text-anchor: middle" x="84.12625" y="284.297812" transform="rotate(-0 84.12625 284.297812)">2</text>
     </g>
    </g>
    <g id="xtick_2">
     <g id="line2d_3">
      <path d="M 146.403063 269.7775 
L 146.403063 26.16 
" clip-path="url(#p31f5d31014)" style="fill: none; stroke: #b0b0b0; stroke-opacity: 0.2; stroke-width: 0.8; stroke-linecap: square"/>
     </g>
     <g id="line2d_4">
      <g>
       <use xlink:href="#m723183036b" x="146.403063" y="269.7775" style="stroke: #000000; stroke-width: 0.8"/>
      </g>
     </g>
     <g id="text_2">
      <text style="font-size: 10px; font-family: 'NanumGothic'; text-anchor: middle" x="146.403063" y="284.297812" transform="rotate(-0 146.403063 284.297812)">4</text>
     </g>
    </g>
    <g id="xtick_3">
     <g id="line2d_5">
      <path d="M 208.679876 269.7775 
L 208.679876 26.16 
" clip-path="url(#p31f5d31014)" style="fill: none; stroke: #b0b0b0; stroke-opacity: 0.2; stroke-width: 0.8; stroke-linecap: square"/>
     </g>
     <g id="line2d_6">
      <g>
       <use xlink:href="#m723183036b" x="208.679876" y="269.7775" style="stroke: #000000; stroke-width: 0.8"/>
      </g>
     </g>
     <g id="text_3">
      <text style="font-size: 10px; font-family: 'NanumGothic'; text-anchor: middle" x="208.679876" y="284.297812" transform="rotate(-0 208.679876 284.297812)">6</text>
     </g>
    </g>
    <g id="xtick_4">
     <g id="line2d_7">
      <path d="M 270.95669 269.7775 
L 270.95669 26.16 
" clip-path="url(#p31f5d31014)" style="fill: none; stroke: #b0b0b0; stroke-opacity: 0.2; stroke-width: 0.8; stroke-linecap: square"/>
     </g>
     <g id="line2d_8">
      <g>
       <use xlink:href="#m723183036b" x="270.95669" y="269.7775" style="stroke: #000000; stroke-width: 0.8"/>
      </g>
     </g>
     <g id="text_4">
      <text style="font-size: 10px; font-family: 'NanumGothic'; text-anchor: middle" x="270.95669" y="284.297812" transform="rotate(-0 270.95669 284.297812)">8</text>
     </g>
    </g>
    <g id="xtick_5">
     <g id="line2d_9">
      <path d="M 333.233503 269.7775 
L 333.233503 26.16 
" clip-path="url(#p31f5d31014)" style="fill: none; stroke: #b0b0b0; stroke-opacity: 0.2; stroke-width: 0.8; stroke-linecap: square"/>
     </g>
     <g id="line2d_10">
      <g>
       <use xlink:href="#m723183036b" x="333.233503" y="269.7775" style="stroke: #000000; stroke-width: 0.8"/>
      </g>
     </g>
     <g id="text_5">
      <text style="font-size: 10px; font-family: 'NanumGothic'; text-anchor: middle" x="333.233503" y="284.297812" transform="rotate(-0 333.233503 284.297812)">10</text>
     </g>
    </g>
    <g id="xtick_6">
     <g id="line2d_11">
      <path d="M 395.510316 269.7775 
L 395.510316 26.16 
" clip-path="url(#p31f5d31014)" style="fill: none; stroke: #b0b0b0; stroke-opacity: 0.2; stroke-width: 0.8; stroke-linecap: square"/>
     </g>
     <g id="line2d_12">
      <g>
       <use xlink:href="#m723183036b" x="395.510316" y="269.7775" style="stroke: #000000; stroke-width: 0.8"/>
      </g>
     </g>
     <g id="text_6">
      <text style="font-size: 10px; font-family: 'NanumGothic'; text-anchor: middle" x="395.510316" y="284.297812" transform="rotate(-0 395.510316 284.297812)">12</text>
     </g>
    </g>
    <g id="text_7">
     <text style="font-size: 10px; font-family: 'NanumGothic'; text-anchor: middle" x="229.219375" y="297.988437" transform="rotate(-0 229.219375 297.988437)">실제 정상 오경보율 (%)</text>
    </g>
   </g>
   <g id="matplotlib.axis_2">
    <g id="ytick_1">
     <g id="line2d_13">
      <path d="M 49.9925 262.882665 
L 408.44625 262.882665 
" clip-path="url(#p31f5d31014)" style="fill: none; stroke: #b0b0b0; stroke-opacity: 0.2; stroke-width: 0.8; stroke-linecap: square"/>
     </g>
     <g id="line2d_14">
      <defs>
       <path id="maef4a5e2ed" d="M 0 0 
L -3.5 0 
" style="stroke: #000000; stroke-width: 0.8"/>
      </defs>
      <g>
       <use xlink:href="#maef4a5e2ed" x="49.9925" y="262.882665" style="stroke: #000000; stroke-width: 0.8"/>
      </g>
     </g>
     <g id="text_8">
      <text style="font-size: 10px; font-family: 'NanumGothic'; text-anchor: end" x="42.9925" y="266.642821" transform="rotate(-0 42.9925 266.642821)">0</text>
     </g>
    </g>
    <g id="ytick_2">
     <g id="line2d_15">
      <path d="M 49.9925 216.917099 
L 408.44625 216.917099 
" clip-path="url(#p31f5d31014)" style="fill: none; stroke: #b0b0b0; stroke-opacity: 0.2; stroke-width: 0.8; stroke-linecap: square"/>
     </g>
     <g id="line2d_16">
      <g>
       <use xlink:href="#maef4a5e2ed" x="49.9925" y="216.917099" style="stroke: #000000; stroke-width: 0.8"/>
      </g>
     </g>
     <g id="text_9">
      <text style="font-size: 10px; font-family: 'NanumGothic'; text-anchor: end" x="42.9925" y="220.677255" transform="rotate(-0 42.9925 220.677255)">20</text>
     </g>
    </g>
    <g id="ytick_3">
     <g id="line2d_17">
      <path d="M 49.9925 170.951533 
L 408.44625 170.951533 
" clip-path="url(#p31f5d31014)" style="fill: none; stroke: #b0b0b0; stroke-opacity: 0.2; stroke-width: 0.8; stroke-linecap: square"/>
     </g>
     <g id="line2d_18">
      <g>
       <use xlink:href="#maef4a5e2ed" x="49.9925" y="170.951533" style="stroke: #000000; stroke-width: 0.8"/>
      </g>
     </g>
     <g id="text_10">
      <text style="font-size: 10px; font-family: 'NanumGothic'; text-anchor: end" x="42.9925" y="174.711689" transform="rotate(-0 42.9925 174.711689)">40</text>
     </g>
    </g>
    <g id="ytick_4">
     <g id="line2d_19">
      <path d="M 49.9925 124.985967 
L 408.44625 124.985967 
" clip-path="url(#p31f5d31014)" style="fill: none; stroke: #b0b0b0; stroke-opacity: 0.2; stroke-width: 0.8; stroke-linecap: square"/>
     </g>
     <g id="line2d_20">
      <g>
       <use xlink:href="#maef4a5e2ed" x="49.9925" y="124.985967" style="stroke: #000000; stroke-width: 0.8"/>
      </g>
     </g>
     <g id="text_11">
      <text style="font-size: 10px; font-family: 'NanumGothic'; text-anchor: end" x="42.9925" y="128.746123" transform="rotate(-0 42.9925 128.746123)">60</text>
     </g>
    </g>
    <g id="ytick_5">
     <g id="line2d_21">
      <path d="M 49.9925 79.020401 
L 408.44625 79.020401 
" clip-path="url(#p31f5d31014)" style="fill: none; stroke: #b0b0b0; stroke-opacity: 0.2; stroke-width: 0.8; stroke-linecap: square"/>
     </g>
     <g id="line2d_22">
      <g>
       <use xlink:href="#maef4a5e2ed" x="49.9925" y="79.020401" style="stroke: #000000; stroke-width: 0.8"/>
      </g>
     </g>
     <g id="text_12">
      <text style="font-size: 10px; font-family: 'NanumGothic'; text-anchor: end" x="42.9925" y="82.780557" transform="rotate(-0 42.9925 82.780557)">80</text>
     </g>
    </g>
    <g id="ytick_6">
     <g id="line2d_23">
      <path d="M 49.9925 33.054835 
L 408.44625 33.054835 
" clip-path="url(#p31f5d31014)" style="fill: none; stroke: #b0b0b0; stroke-opacity: 0.2; stroke-width: 0.8; stroke-linecap: square"/>
     </g>
     <g id="line2d_24">
      <g>
       <use xlink:href="#maef4a5e2ed" x="49.9925" y="33.054835" style="stroke: #000000; stroke-width: 0.8"/>
      </g>
     </g>
     <g id="text_13">
      <text style="font-size: 10px; font-family: 'NanumGothic'; text-anchor: end" x="42.9925" y="36.814991" transform="rotate(-0 42.9925 36.814991)">100</text>
     </g>
    </g>
    <g id="text_14">
     <text style="font-size: 10px; font-family: 'NanumGothic'; text-anchor: middle" x="18.855" y="147.96875" transform="rotate(-90 18.855 147.96875)">실제 진입 탐지율 (%)</text>
    </g>
   </g>
   <g id="line2d_25">
    <path d="M 104.139095 129.3178 
L 163.387649 93.219188 
L 229.219375 69.153447 
L 392.152898 46.290993 
" clip-path="url(#p31f5d31014)" style="fill: none; stroke: #1f77b4; stroke-width: 1.5; stroke-linecap: square"/>
    <defs>
     <path id="m2076bc81b0" d="M 0 3 
C 0.795609 3 1.55874 2.683901 2.12132 2.12132 
C 2.683901 1.55874 3 0.795609 3 0 
C 3 -0.795609 2.683901 -1.55874 2.12132 -2.12132 
C 1.55874 -2.683901 0.795609 -3 0 -3 
C -0.795609 -3 -1.55874 -2.683901 -2.12132 -2.12132 
C -2.683901 -1.55874 -3 -0.795609 -3 0 
C -3 0.795609 -2.683901 1.55874 -2.12132 2.12132 
C -1.55874 2.683901 -0.795609 3 0 3 
z
" style="stroke: #1f77b4"/>
    </defs>
    <g clip-path="url(#p31f5d31014)">
     <use xlink:href="#m2076bc81b0" x="104.139095" y="129.3178" style="fill: #1f77b4; stroke: #1f77b4"/>
     <use xlink:href="#m2076bc81b0" x="163.387649" y="93.219188" style="fill: #1f77b4; stroke: #1f77b4"/>
     <use xlink:href="#m2076bc81b0" x="229.219375" y="69.153447" style="fill: #1f77b4; stroke: #1f77b4"/>
     <use xlink:href="#m2076bc81b0" x="392.152898" y="46.290993" style="fill: #1f77b4; stroke: #1f77b4"/>
    </g>
   </g>
   <g id="line2d_26">
    <path d="M 66.285852 225.580766 
L 77.806404 215.954469 
L 114.013854 199.10845 
L 258.843652 140.147384 
" clip-path="url(#p31f5d31014)" style="fill: none; stroke: #ff7f0e; stroke-width: 1.5; stroke-linecap: square"/>
    <defs>
     <path id="m4abaec2038" d="M 0 3 
C 0.795609 3 1.55874 2.683901 2.12132 2.12132 
C 2.683901 1.55874 3 0.795609 3 0 
C 3 -0.795609 2.683901 -1.55874 2.12132 -2.12132 
C 1.55874 -2.683901 0.795609 -3 0 -3 
C -0.795609 -3 -1.55874 -2.683901 -2.12132 -2.12132 
C -2.683901 -1.55874 -3 -0.795609 -3 0 
C -3 0.795609 -2.683901 1.55874 -2.12132 2.12132 
C -1.55874 2.683901 -0.795609 3 0 3 
z
" style="stroke: #ff7f0e"/>
    </defs>
    <g clip-path="url(#p31f5d31014)">
     <use xlink:href="#m4abaec2038" x="66.285852" y="225.580766" style="fill: #ff7f0e; stroke: #ff7f0e"/>
     <use xlink:href="#m4abaec2038" x="77.806404" y="215.954469" style="fill: #ff7f0e; stroke: #ff7f0e"/>
     <use xlink:href="#m4abaec2038" x="114.013854" y="199.10845" style="fill: #ff7f0e; stroke: #ff7f0e"/>
     <use xlink:href="#m4abaec2038" x="258.843652" y="140.147384" style="fill: #ff7f0e; stroke: #ff7f0e"/>
    </g>
   </g>
   <g id="line2d_27">
    <path d="M 90.97275 205.124886 
L 145.283924 187.07558 
L 194.657719 177.449283 
L 280.238963 156.993403 
" clip-path="url(#p31f5d31014)" style="fill: none; stroke: #2ca02c; stroke-width: 1.5; stroke-linecap: square"/>
    <defs>
     <path id="m855b078672" d="M 0 3 
C 0.795609 3 1.55874 2.683901 2.12132 2.12132 
C 2.683901 1.55874 3 0.795609 3 0 
C 3 -0.795609 2.683901 -1.55874 2.12132 -2.12132 
C 1.55874 -2.683901 0.795609 -3 0 -3 
C -0.795609 -3 -1.55874 -2.683901 -2.12132 -2.12132 
C -2.683901 -1.55874 -3 -0.795609 -3 0 
C -3 0.795609 -2.683901 1.55874 -2.12132 2.12132 
C -1.55874 2.683901 -0.795609 3 0 3 
z
" style="stroke: #2ca02c"/>
    </defs>
    <g clip-path="url(#p31f5d31014)">
     <use xlink:href="#m855b078672" x="90.97275" y="205.124886" style="fill: #2ca02c; stroke: #2ca02c"/>
     <use xlink:href="#m855b078672" x="145.283924" y="187.07558" style="fill: #2ca02c; stroke: #2ca02c"/>
     <use xlink:href="#m855b078672" x="194.657719" y="177.449283" style="fill: #2ca02c; stroke: #2ca02c"/>
     <use xlink:href="#m855b078672" x="280.238963" y="156.993403" style="fill: #2ca02c; stroke: #2ca02c"/>
    </g>
   </g>
   <g id="line2d_28">
    <path d="M 76.160611 226.784053 
L 153.51289 213.547895 
L 206.178271 199.10845 
L 321.383792 173.839422 
" clip-path="url(#p31f5d31014)" style="fill: none; stroke: #d62728; stroke-width: 1.5; stroke-linecap: square"/>
    <defs>
     <path id="m9a8c895e62" d="M 0 3 
C 0.795609 3 1.55874 2.683901 2.12132 2.12132 
C 2.683901 1.55874 3 0.795609 3 0 
C 3 -0.795609 2.683901 -1.55874 2.12132 -2.12132 
C 1.55874 -2.683901 0.795609 -3 0 -3 
C -0.795609 -3 -1.55874 -2.683901 -2.12132 -2.12132 
C -2.683901 -1.55874 -3 -0.795609 -3 0 
C -3 0.795609 -2.683901 1.55874 -2.12132 2.12132 
C -1.55874 2.683901 -0.795609 3 0 3 
z
" style="stroke: #d62728"/>
    </defs>
    <g clip-path="url(#p31f5d31014)">
     <use xlink:href="#m9a8c895e62" x="76.160611" y="226.784053" style="fill: #d62728; stroke: #d62728"/>
     <use xlink:href="#m9a8c895e62" x="153.51289" y="213.547895" style="fill: #d62728; stroke: #d62728"/>
     <use xlink:href="#m9a8c895e62" x="206.178271" y="199.10845" style="fill: #d62728; stroke: #d62728"/>
     <use xlink:href="#m9a8c895e62" x="321.383792" y="173.839422" style="fill: #d62728; stroke: #d62728"/>
    </g>
   </g>
   <g id="patch_3">
    <path d="M 49.9925 269.7775 
L 49.9925 26.16 
" style="fill: none; stroke: #000000; stroke-width: 0.8; stroke-linejoin: miter; stroke-linecap: square"/>
   </g>
   <g id="patch_4">
    <path d="M 408.44625 269.7775 
L 408.44625 26.16 
" style="fill: none; stroke: #000000; stroke-width: 0.8; stroke-linejoin: miter; stroke-linecap: square"/>
   </g>
   <g id="patch_5">
    <path d="M 49.9925 269.7775 
L 408.44625 269.7775 
" style="fill: none; stroke: #000000; stroke-width: 0.8; stroke-linejoin: miter; stroke-linecap: square"/>
   </g>
   <g id="patch_6">
    <path d="M 49.9925 26.16 
L 408.44625 26.16 
" style="fill: none; stroke: #000000; stroke-width: 0.8; stroke-linejoin: miter; stroke-linecap: square"/>
   </g>
   <g id="text_15">
    <text style="font-size: 12px; font-family: 'NanumGothic'; text-anchor: middle" x="229.219375" y="20.16" transform="rotate(-0 229.219375 20.16)">4~6월</text>
   </g>
  </g>
  <g id="axes_2">
   <g id="patch_7">
    <path d="M 422.74625 269.7775 
L 781.2 269.7775 
L 781.2 26.16 
L 422.74625 26.16 
z
" style="fill: #ffffff"/>
   </g>
   <g id="matplotlib.axis_3">
    <g id="xtick_7">
     <g id="line2d_29">
      <path d="M 432.389254 269.7775 
L 432.389254 26.16 
" clip-path="url(#p621140eb0e)" style="fill: none; stroke: #b0b0b0; stroke-opacity: 0.2; stroke-width: 0.8; stroke-linecap: square"/>
     </g>
     <g id="line2d_30">
      <g>
       <use xlink:href="#m723183036b" x="432.389254" y="269.7775" style="stroke: #000000; stroke-width: 0.8"/>
      </g>
     </g>
     <g id="text_16">
      <text style="font-size: 10px; font-family: 'NanumGothic'; text-anchor: middle" x="432.389254" y="284.297812" transform="rotate(-0 432.389254 284.297812)">0</text>
     </g>
    </g>
    <g id="xtick_8">
     <g id="line2d_31">
      <path d="M 494.63651 269.7775 
L 494.63651 26.16 
" clip-path="url(#p621140eb0e)" style="fill: none; stroke: #b0b0b0; stroke-opacity: 0.2; stroke-width: 0.8; stroke-linecap: square"/>
     </g>
     <g id="line2d_32">
      <g>
       <use xlink:href="#m723183036b" x="494.63651" y="269.7775" style="stroke: #000000; stroke-width: 0.8"/>
      </g>
     </g>
     <g id="text_17">
      <text style="font-size: 10px; font-family: 'NanumGothic'; text-anchor: middle" x="494.63651" y="284.297812" transform="rotate(-0 494.63651 284.297812)">2</text>
     </g>
    </g>
    <g id="xtick_9">
     <g id="line2d_33">
      <path d="M 556.883766 269.7775 
L 556.883766 26.16 
" clip-path="url(#p621140eb0e)" style="fill: none; stroke: #b0b0b0; stroke-opacity: 0.2; stroke-width: 0.8; stroke-linecap: square"/>
     </g>
     <g id="line2d_34">
      <g>
       <use xlink:href="#m723183036b" x="556.883766" y="269.7775" style="stroke: #000000; stroke-width: 0.8"/>
      </g>
     </g>
     <g id="text_18">
      <text style="font-size: 10px; font-family: 'NanumGothic'; text-anchor: middle" x="556.883766" y="284.297812" transform="rotate(-0 556.883766 284.297812)">4</text>
     </g>
    </g>
    <g id="xtick_10">
     <g id="line2d_35">
      <path d="M 619.131022 269.7775 
L 619.131022 26.16 
" clip-path="url(#p621140eb0e)" style="fill: none; stroke: #b0b0b0; stroke-opacity: 0.2; stroke-width: 0.8; stroke-linecap: square"/>
     </g>
     <g id="line2d_36">
      <g>
       <use xlink:href="#m723183036b" x="619.131022" y="269.7775" style="stroke: #000000; stroke-width: 0.8"/>
      </g>
     </g>
     <g id="text_19">
      <text style="font-size: 10px; font-family: 'NanumGothic'; text-anchor: middle" x="619.131022" y="284.297812" transform="rotate(-0 619.131022 284.297812)">6</text>
     </g>
    </g>
    <g id="xtick_11">
     <g id="line2d_37">
      <path d="M 681.378279 269.7775 
L 681.378279 26.16 
" clip-path="url(#p621140eb0e)" style="fill: none; stroke: #b0b0b0; stroke-opacity: 0.2; stroke-width: 0.8; stroke-linecap: square"/>
     </g>
     <g id="line2d_38">
      <g>
       <use xlink:href="#m723183036b" x="681.378279" y="269.7775" style="stroke: #000000; stroke-width: 0.8"/>
      </g>
     </g>
     <g id="text_20">
      <text style="font-size: 10px; font-family: 'NanumGothic'; text-anchor: middle" x="681.378279" y="284.297812" transform="rotate(-0 681.378279 284.297812)">8</text>
     </g>
    </g>
    <g id="xtick_12">
     <g id="line2d_39">
      <path d="M 743.625535 269.7775 
L 743.625535 26.16 
" clip-path="url(#p621140eb0e)" style="fill: none; stroke: #b0b0b0; stroke-opacity: 0.2; stroke-width: 0.8; stroke-linecap: square"/>
     </g>
     <g id="line2d_40">
      <g>
       <use xlink:href="#m723183036b" x="743.625535" y="269.7775" style="stroke: #000000; stroke-width: 0.8"/>
      </g>
     </g>
     <g id="text_21">
      <text style="font-size: 10px; font-family: 'NanumGothic'; text-anchor: middle" x="743.625535" y="284.297812" transform="rotate(-0 743.625535 284.297812)">10</text>
     </g>
    </g>
    <g id="text_22">
     <text style="font-size: 10px; font-family: 'NanumGothic'; text-anchor: middle" x="601.973125" y="297.988437" transform="rotate(-0 601.973125 297.988437)">실제 정상 오경보율 (%)</text>
    </g>
   </g>
   <g id="matplotlib.axis_4">
    <g id="ytick_7">
     <g id="line2d_41">
      <path d="M 422.74625 262.882665 
L 781.2 262.882665 
" clip-path="url(#p621140eb0e)" style="fill: none; stroke: #b0b0b0; stroke-opacity: 0.2; stroke-width: 0.8; stroke-linecap: square"/>
     </g>
     <g id="line2d_42">
      <g>
       <use xlink:href="#maef4a5e2ed" x="422.74625" y="262.882665" style="stroke: #000000; stroke-width: 0.8"/>
      </g>
     </g>
    </g>
    <g id="ytick_8">
     <g id="line2d_43">
      <path d="M 422.74625 216.917099 
L 781.2 216.917099 
" clip-path="url(#p621140eb0e)" style="fill: none; stroke: #b0b0b0; stroke-opacity: 0.2; stroke-width: 0.8; stroke-linecap: square"/>
     </g>
     <g id="line2d_44">
      <g>
       <use xlink:href="#maef4a5e2ed" x="422.74625" y="216.917099" style="stroke: #000000; stroke-width: 0.8"/>
      </g>
     </g>
    </g>
    <g id="ytick_9">
     <g id="line2d_45">
      <path d="M 422.74625 170.951533 
L 781.2 170.951533 
" clip-path="url(#p621140eb0e)" style="fill: none; stroke: #b0b0b0; stroke-opacity: 0.2; stroke-width: 0.8; stroke-linecap: square"/>
     </g>
     <g id="line2d_46">
      <g>
       <use xlink:href="#maef4a5e2ed" x="422.74625" y="170.951533" style="stroke: #000000; stroke-width: 0.8"/>
      </g>
     </g>
    </g>
    <g id="ytick_10">
     <g id="line2d_47">
      <path d="M 422.74625 124.985967 
L 781.2 124.985967 
" clip-path="url(#p621140eb0e)" style="fill: none; stroke: #b0b0b0; stroke-opacity: 0.2; stroke-width: 0.8; stroke-linecap: square"/>
     </g>
     <g id="line2d_48">
      <g>
       <use xlink:href="#maef4a5e2ed" x="422.74625" y="124.985967" style="stroke: #000000; stroke-width: 0.8"/>
      </g>
     </g>
    </g>
    <g id="ytick_11">
     <g id="line2d_49">
      <path d="M 422.74625 79.020401 
L 781.2 79.020401 
" clip-path="url(#p621140eb0e)" style="fill: none; stroke: #b0b0b0; stroke-opacity: 0.2; stroke-width: 0.8; stroke-linecap: square"/>
     </g>
     <g id="line2d_50">
      <g>
       <use xlink:href="#maef4a5e2ed" x="422.74625" y="79.020401" style="stroke: #000000; stroke-width: 0.8"/>
      </g>
     </g>
    </g>
    <g id="ytick_12">
     <g id="line2d_51">
      <path d="M 422.74625 33.054835 
L 781.2 33.054835 
" clip-path="url(#p621140eb0e)" style="fill: none; stroke: #b0b0b0; stroke-opacity: 0.2; stroke-width: 0.8; stroke-linecap: square"/>
     </g>
     <g id="line2d_52">
      <g>
       <use xlink:href="#maef4a5e2ed" x="422.74625" y="33.054835" style="stroke: #000000; stroke-width: 0.8"/>
      </g>
     </g>
    </g>
   </g>
   <g id="line2d_53">
    <path d="M 518.843777 50.90554 
L 591.997603 39.748849 
L 665.15143 35.286173 
L 731.654908 35.286173 
" clip-path="url(#p621140eb0e)" style="fill: none; stroke: #1f77b4; stroke-width: 1.5; stroke-linecap: square"/>
    <g clip-path="url(#p621140eb0e)">
     <use xlink:href="#m2076bc81b0" x="518.843777" y="50.90554" style="fill: #1f77b4; stroke: #1f77b4"/>
     <use xlink:href="#m2076bc81b0" x="591.997603" y="39.748849" style="fill: #1f77b4; stroke: #1f77b4"/>
     <use xlink:href="#m2076bc81b0" x="665.15143" y="35.286173" style="fill: #1f77b4; stroke: #1f77b4"/>
     <use xlink:href="#m2076bc81b0" x="731.654908" y="35.286173" style="fill: #1f77b4; stroke: #1f77b4"/>
    </g>
   </g>
   <g id="line2d_54">
    <path d="M 439.039602 182.554491 
L 452.340298 140.159066 
L 465.640994 91.069627 
L 545.445168 64.293569 
" clip-path="url(#p621140eb0e)" style="fill: none; stroke: #ff7f0e; stroke-width: 1.5; stroke-linecap: square"/>
    <g clip-path="url(#p621140eb0e)">
     <use xlink:href="#m4abaec2038" x="439.039602" y="182.554491" style="fill: #ff7f0e; stroke: #ff7f0e"/>
     <use xlink:href="#m4abaec2038" x="452.340298" y="140.159066" style="fill: #ff7f0e; stroke: #ff7f0e"/>
     <use xlink:href="#m4abaec2038" x="465.640994" y="91.069627" style="fill: #ff7f0e; stroke: #ff7f0e"/>
     <use xlink:href="#m4abaec2038" x="545.445168" y="64.293569" style="fill: #ff7f0e; stroke: #ff7f0e"/>
    </g>
   </g>
   <g id="line2d_55">
    <path d="M 638.550038 171.397801 
L 698.403169 162.472448 
L 718.354213 162.472448 
L 764.906648 133.465052 
" clip-path="url(#p621140eb0e)" style="fill: none; stroke: #2ca02c; stroke-width: 1.5; stroke-linecap: square"/>
    <g clip-path="url(#p621140eb0e)">
     <use xlink:href="#m855b078672" x="638.550038" y="171.397801" style="fill: #2ca02c; stroke: #2ca02c"/>
     <use xlink:href="#m855b078672" x="698.403169" y="162.472448" style="fill: #2ca02c; stroke: #2ca02c"/>
     <use xlink:href="#m855b078672" x="718.354213" y="162.472448" style="fill: #2ca02c; stroke: #2ca02c"/>
     <use xlink:href="#m855b078672" x="764.906648" y="133.465052" style="fill: #2ca02c; stroke: #2ca02c"/>
    </g>
   </g>
   <g id="line2d_56">
    <path d="M 472.291342 207.099211 
L 492.242385 193.711182 
L 518.843777 180.323153 
L 565.396212 169.166462 
" clip-path="url(#p621140eb0e)" style="fill: none; stroke: #d62728; stroke-width: 1.5; stroke-linecap: square"/>
    <g clip-path="url(#p621140eb0e)">
     <use xlink:href="#m9a8c895e62" x="472.291342" y="207.099211" style="fill: #d62728; stroke: #d62728"/>
     <use xlink:href="#m9a8c895e62" x="492.242385" y="193.711182" style="fill: #d62728; stroke: #d62728"/>
     <use xlink:href="#m9a8c895e62" x="518.843777" y="180.323153" style="fill: #d62728; stroke: #d62728"/>
     <use xlink:href="#m9a8c895e62" x="565.396212" y="169.166462" style="fill: #d62728; stroke: #d62728"/>
    </g>
   </g>
   <g id="patch_8">
    <path d="M 422.74625 269.7775 
L 422.74625 26.16 
" style="fill: none; stroke: #000000; stroke-width: 0.8; stroke-linejoin: miter; stroke-linecap: square"/>
   </g>
   <g id="patch_9">
    <path d="M 781.2 269.7775 
L 781.2 26.16 
" style="fill: none; stroke: #000000; stroke-width: 0.8; stroke-linejoin: miter; stroke-linecap: square"/>
   </g>
   <g id="patch_10">
    <path d="M 422.74625 269.7775 
L 781.2 269.7775 
" style="fill: none; stroke: #000000; stroke-width: 0.8; stroke-linejoin: miter; stroke-linecap: square"/>
   </g>
   <g id="patch_11">
    <path d="M 422.74625 26.16 
L 781.2 26.16 
" style="fill: none; stroke: #000000; stroke-width: 0.8; stroke-linejoin: miter; stroke-linecap: square"/>
   </g>
   <g id="text_23">
    <text style="font-size: 12px; font-family: 'NanumGothic'; text-anchor: middle" x="601.973125" y="20.16" transform="rotate(-0 601.973125 20.16)">7월 · 재사용 진단</text>
   </g>
  </g>
  <g id="legend_1">
   <g id="patch_12">
    <path d="M 219.335156 340.6 
L 572.664844 340.6 
Q 574.664844 340.6 574.664844 338.6 
L 574.664844 325.090625 
Q 574.664844 323.090625 572.664844 323.090625 
L 219.335156 323.090625 
Q 217.335156 323.090625 217.335156 325.090625 
L 217.335156 338.6 
Q 217.335156 340.6 219.335156 340.6 
z
" style="fill: #ffffff; opacity: 0.8; stroke: #cccccc; stroke-linejoin: miter"/>
   </g>
   <g id="line2d_57">
    <path d="M 221.335156 331.120312 
L 231.335156 331.120312 
L 241.335156 331.120312 
" style="fill: none; stroke: #1f77b4; stroke-width: 1.5; stroke-linecap: square"/>
    <g>
     <use xlink:href="#m2076bc81b0" x="231.335156" y="331.120312" style="fill: #1f77b4; stroke: #1f77b4"/>
    </g>
   </g>
   <g id="text_24">
    <text style="font-size: 10px; font-family: 'NanumGothic'; text-anchor: start" x="249.335156" y="334.620312" transform="rotate(-0 249.335156 334.620312)">LightGBM</text>
   </g>
   <g id="line2d_58">
    <path d="M 316.064844 331.120312 
L 326.064844 331.120312 
L 336.064844 331.120312 
" style="fill: none; stroke: #ff7f0e; stroke-width: 1.5; stroke-linecap: square"/>
    <g>
     <use xlink:href="#m4abaec2038" x="326.064844" y="331.120312" style="fill: #ff7f0e; stroke: #ff7f0e"/>
    </g>
   </g>
   <g id="text_25">
    <text style="font-size: 10px; font-family: 'NanumGothic'; text-anchor: start" x="344.064844" y="334.620312" transform="rotate(-0 344.064844 334.620312)">전주 기준</text>
   </g>
   <g id="line2d_59">
    <path d="M 404.464844 331.120312 
L 414.464844 331.120312 
L 424.464844 331.120312 
" style="fill: none; stroke: #2ca02c; stroke-width: 1.5; stroke-linecap: square"/>
    <g>
     <use xlink:href="#m855b078672" x="414.464844" y="331.120312" style="fill: #2ca02c; stroke: #2ca02c"/>
    </g>
   </g>
   <g id="text_26">
    <text style="font-size: 10px; font-family: 'NanumGothic'; text-anchor: start" x="432.464844" y="334.620312" transform="rotate(-0 432.464844 334.620312)">전일 기준</text>
   </g>
   <g id="line2d_60">
    <path d="M 492.864844 331.120312 
L 502.864844 331.120312 
L 512.864844 331.120312 
" style="fill: none; stroke: #d62728; stroke-width: 1.5; stroke-linecap: square"/>
    <g>
     <use xlink:href="#m9a8c895e62" x="502.864844" y="331.120312" style="fill: #d62728; stroke: #d62728"/>
    </g>
   </g>
   <g id="text_27">
    <text style="font-size: 10px; font-family: 'NanumGothic'; text-anchor: start" x="520.864844" y="334.620312" transform="rotate(-0 520.864844 334.620312)">현재 전력만</text>
   </g>
  </g>
 </g>
 <defs>
  <clipPath id="p31f5d31014">
   <rect x="49.9925" y="26.16" width="358.45375" height="243.6175"/>
  </clipPath>
  <clipPath id="p621140eb0e">
   <rect x="422.74625" y="26.16" width="358.45375" height="243.6175"/>
  </clipPath>
 </defs>
</svg>
